<svg id="Layer_1" data-name="Layer 1" xmlns="http://www.w3.org/2000/svg" viewBox="0 0 625 200"><defs><style>.cls-1{fill:#515151;}.cls-2{fill:#ff3964;}.cls-3{fill:#ff77a4;}.cls-4{fill:#8b7ce1;}.cls-5{fill:#6864df;}</style></defs><title>devices</title><path class="cls-1" d="M109.41,143V60.35h23.12A37,37,0,0,1,146.75,63a31.89,31.89,0,0,1,11.19,7.6,35,35,0,0,1,7.3,11.87,43.55,43.55,0,0,1,2.61,15.45v7.55a43.55,43.55,0,0,1-2.61,15.45,34.44,34.44,0,0,1-7.33,11.84,32.27,32.27,0,0,1-11.3,7.58A38.37,38.37,0,0,1,132.07,143Zm7-76.72v70.81h15.67a29.92,29.92,0,0,0,12-2.3,25.77,25.77,0,0,0,9.08-6.47,28.84,28.84,0,0,0,5.76-10,38.89,38.89,0,0,0,2-12.86V97.77a39.06,39.06,0,0,0-2-13,28.77,28.77,0,0,0-5.77-9.91,25.71,25.71,0,0,0-8.94-6.33,29.32,29.32,0,0,0-11.64-2.24Z"/><path class="cls-1" d="M212.09,144.16A26.91,26.91,0,0,1,201,141.92a25.84,25.84,0,0,1-8.72-6.25,28.79,28.79,0,0,1-5.71-9.51,34.55,34.55,0,0,1-2-12.09v-2.44a36.93,36.93,0,0,1,2.13-12.87,30.36,30.36,0,0,1,5.76-9.82,25.86,25.86,0,0,1,8.38-6.28,23.48,23.48,0,0,1,10-2.21,24.5,24.5,0,0,1,10.39,2.1,21.37,21.37,0,0,1,7.64,5.85,25.78,25.78,0,0,1,4.69,8.91,38.36,38.36,0,0,1,1.59,11.31v4.14H191.31v1.31a29.08,29.08,0,0,0,1.53,9.51,23.87,23.87,0,0,0,4.32,7.75,20.28,20.28,0,0,0,6.64,5.2,19.22,19.22,0,0,0,8.57,1.9,22.07,22.07,0,0,0,9.63-2,21.25,21.25,0,0,0,7.58-6.36l4.26,3.24a29.6,29.6,0,0,1-3.55,4.2,20.89,20.89,0,0,1-4.68,3.46,25.15,25.15,0,0,1-6,2.33A30.44,30.44,0,0,1,212.09,144.16Zm-1.25-57.92a17.17,17.17,0,0,0-7.15,1.48,17.61,17.61,0,0,0-5.82,4.2,22.2,22.2,0,0,0-4.15,6.56,31.56,31.56,0,0,0-2.19,8.49h36.86v-.74a27.56,27.56,0,0,0-1.25-7.47,20.23,20.23,0,0,0-3.32-6.39,16.36,16.36,0,0,0-5.43-4.45A16.13,16.13,0,0,0,210.84,86.24Z"/><path class="cls-1" d="M271.84,133.66l18.68-52.08h7L274.56,143h-5.51L246,81.58h7Z"/><path class="cls-1" d="M312.56,63.81a4.54,4.54,0,0,1,1.25-3.26,4.42,4.42,0,0,1,3.4-1.34,4.49,4.49,0,0,1,4.72,4.6,4.46,4.46,0,0,1-1.28,3.24,4.59,4.59,0,0,1-3.44,1.3,4.37,4.37,0,0,1-4.65-4.54Zm8,79.22h-6.81V81.58h6.81Z"/><path class="cls-1" d="M366.06,138.43a20.4,20.4,0,0,0,6.21-.94,16.54,16.54,0,0,0,5.31-2.75,14.9,14.9,0,0,0,3.84-4.49,14.33,14.33,0,0,0,1.73-6.19h6.53a19.07,19.07,0,0,1-2.19,8.07,20.92,20.92,0,0,1-5.17,6.36,24.17,24.17,0,0,1-7.41,4.17,26.11,26.11,0,0,1-8.85,1.5,25.84,25.84,0,0,1-11.36-2.35,23.45,23.45,0,0,1-8.21-6.5,28.62,28.62,0,0,1-5-9.74,42.12,42.12,0,0,1-1.67-12.07v-2.39a42.1,42.1,0,0,1,1.67-12.06,28.5,28.5,0,0,1,5-9.71,23.46,23.46,0,0,1,8.21-6.51A25.62,25.62,0,0,1,366,80.45,26.78,26.78,0,0,1,375.17,82a22.19,22.19,0,0,1,7.38,4.37,21.2,21.2,0,0,1,5,6.9,24,24,0,0,1,2.1,9.06h-6.53a18.09,18.09,0,0,0-1.62-6.7,16,16,0,0,0-3.69-5,15.87,15.87,0,0,0-5.34-3.21,18.8,18.8,0,0,0-6.5-1.11,18.08,18.08,0,0,0-8.95,2.05,17.36,17.36,0,0,0-6,5.5,23.91,23.91,0,0,0-3.38,7.95,41.09,41.09,0,0,0-1.05,9.37v2.39a41.6,41.6,0,0,0,1.05,9.45,23.93,23.93,0,0,0,3.35,8,17,17,0,0,0,6,5.48A18.38,18.38,0,0,0,366.06,138.43Z"/><path class="cls-1" d="M431.37,144.16a26.92,26.92,0,0,1-11.08-2.24,25.94,25.94,0,0,1-8.72-6.25,28.6,28.6,0,0,1-5.7-9.51,34.32,34.32,0,0,1-2.05-12.09v-2.44A36.93,36.93,0,0,1,406,98.76a30.2,30.2,0,0,1,5.77-9.82,25.82,25.82,0,0,1,8.37-6.28,23.49,23.49,0,0,1,10-2.21,24.53,24.53,0,0,1,10.39,2.1,21.46,21.46,0,0,1,7.64,5.85,25.76,25.76,0,0,1,4.68,8.91,38.36,38.36,0,0,1,1.59,11.31v4.14H410.58v1.31a29.08,29.08,0,0,0,1.53,9.51,24.05,24.05,0,0,0,4.32,7.75,20.38,20.38,0,0,0,6.64,5.2,19.29,19.29,0,0,0,8.58,1.9,22.05,22.05,0,0,0,9.62-2,21.28,21.28,0,0,0,7.59-6.36l4.25,3.24a29.52,29.52,0,0,1-3.54,4.2,21.18,21.18,0,0,1-4.69,3.46,25.15,25.15,0,0,1-6,2.33A30.3,30.3,0,0,1,431.37,144.16Zm-1.25-57.92A17.19,17.19,0,0,0,423,87.72a17.61,17.61,0,0,0-5.82,4.2A22.4,22.4,0,0,0,413,98.48a31.93,31.93,0,0,0-2.18,8.49h36.85v-.74a27.18,27.18,0,0,0-1.25-7.47,20,20,0,0,0-3.32-6.39,15.89,15.89,0,0,0-13-6.13Z"/><path class="cls-1" d="M508.77,127.41a11.47,11.47,0,0,0-.65-3.75,9,9,0,0,0-2.44-3.55,18.74,18.74,0,0,0-5-3.12,41.78,41.78,0,0,0-8.32-2.53,71.37,71.37,0,0,1-9.12-2.49,26.47,26.47,0,0,1-6.75-3.44,13.52,13.52,0,0,1-4.18-4.8,14.25,14.25,0,0,1-1.42-6.53,14.53,14.53,0,0,1,1.51-6.47,15.64,15.64,0,0,1,4.31-5.34,21.77,21.77,0,0,1,6.82-3.61,28.37,28.37,0,0,1,9-1.33,30.49,30.49,0,0,1,9.57,1.39,21.36,21.36,0,0,1,7.15,3.86,16.63,16.63,0,0,1,4.46,5.82,17.32,17.32,0,0,1,1.53,7.27h-6.81a11,11,0,0,0-1.05-4.66,11.76,11.76,0,0,0-3.07-4,16,16,0,0,0-5-2.81,19.87,19.87,0,0,0-6.79-1.08,20.87,20.87,0,0,0-6.79,1,13.87,13.87,0,0,0-4.6,2.5A9.43,9.43,0,0,0,477.71,97a10.67,10.67,0,0,0,.62,3.72,7.46,7.46,0,0,0,2.42,3.13,18.59,18.59,0,0,0,5,2.67,67.46,67.46,0,0,0,8.38,2.41,70.06,70.06,0,0,1,9.6,2.9,24.5,24.5,0,0,1,6.67,3.77,14.06,14.06,0,0,1,3.92,5,15.58,15.58,0,0,1,1.28,6.5,15.22,15.22,0,0,1-1.59,7,15.43,15.43,0,0,1-4.55,5.39,22,22,0,0,1-7.15,3.49,36.08,36.08,0,0,1-19.71-.25A23.13,23.13,0,0,1,475,138.6a16.94,16.94,0,0,1-4.63-5.88,16,16,0,0,1-1.56-6.9h6.81a11.93,11.93,0,0,0,1.88,6.05,12.76,12.76,0,0,0,4.09,3.86,17.24,17.24,0,0,0,5.42,2.07,28.42,28.42,0,0,0,5.88.63,23.06,23.06,0,0,0,6.81-.91,15.9,15.9,0,0,0,5-2.44,10.49,10.49,0,0,0,3-3.52A9,9,0,0,0,508.77,127.41Z"/><rect class="cls-2" x="536.94" y="94.36" width="64.75" height="11.82" rx="5.1" ry="5.1" transform="translate(95.85 431.93) rotate(-45)"/><rect class="cls-3" x="550.07" y="107.49" width="64.75" height="11.82" rx="5.1" ry="5.1" transform="translate(90.41 445.06) rotate(-45)"/><rect class="cls-4" x="557.82" y="126.2" width="11.82" height="11.82" rx="5.1" ry="5.1" transform="translate(71.7 437.31) rotate(-45)"/><rect class="cls-5" x="582.11" y="75.65" width="11.82" height="11.82" rx="5.1" ry="5.1" transform="translate(114.56 439.68) rotate(-45)"/><rect class="cls-5" x="550.27" y="81.23" width="11.82" height="11.82" rx="5.1" ry="5.1" transform="translate(101.28 418.81) rotate(-45)"/><rect class="cls-2" x="589.66" y="120.62" width="11.82" height="11.82" rx="5.1" ry="5.1" transform="translate(84.97 458.19) rotate(-45)"/><rect class="cls-2" x="22.91" y="94.49" width="64.75" height="11.82" rx="5.1" ry="5.1" transform="translate(87.19 -9.68) rotate(45)"/><rect class="cls-3" x="9.78" y="107.62" width="64.75" height="11.82" rx="5.1" ry="5.1" transform="translate(92.63 3.45) rotate(45)"/><rect class="cls-4" x="17.53" y="88.91" width="11.82" height="11.82" rx="5.1" ry="5.1" transform="translate(73.91 11.2) rotate(45)"/><rect class="cls-5" x="68.08" y="113.21" width="11.82" height="11.82" rx="5.1" ry="5.1" transform="translate(105.9 -17.43) rotate(45)"/><rect class="cls-5" x="62.5" y="81.37" width="11.82" height="11.82" rx="5.1" ry="5.1" transform="translate(81.75 -22.81) rotate(45)"/><rect class="cls-2" x="23.11" y="120.75" width="11.82" height="11.82" rx="5.1" ry="5.1" transform="translate(98.06 16.58) rotate(45)"/></svg>